<svg width="16" height="16" viewBox="0 0 16 16" fill="none" xmlns="http://www.w3.org/2000/svg">
<path fill-rule="evenodd" clip-rule="evenodd" d="M3 2C2.44772 2 2 2.44772 2 3V5C2 5.55228 2.44772 6 3 6H5C5.55228 6 6 5.55228 6 5V3C6 2.44772 5.55228 2 5 2H3ZM11 10C10.4477 10 10 10.4477 10 11V13C10 13.5523 10.4477 14 11 14H13C13.5523 14 14 13.5523 14 13V11C14 10.4477 13.5523 10 13 10H11Z" fill="#545454"/>
<path fill-rule="evenodd" clip-rule="evenodd" d="M4 7V10C4 11.1046 4.89543 12 6 12H9V11C9 9.89543 9.89543 9 11 9H12V6C12 4.89543 11.1046 4 10 4H7V5C7 6.10457 6.10457 7 5 7H4Z" fill="#030303"/>
</svg>
