<svg width="16" height="16" viewBox="0 0 16 16" fill="none" xmlns="http://www.w3.org/2000/svg">
<path fill-rule="evenodd" clip-rule="evenodd" d="M7 2.5V3H6C4.34315 3 3 4.34315 3 6L3 7H2.5C1.67157 7 1 6.32843 1 5.5V2.5C1 1.67157 1.67157 1 2.5 1H5.5C6.32843 1 7 1.67157 7 2.5ZM9 13.5V13H10C11.6569 13 13 11.6569 13 10V9H13.5C14.3284 9 15 9.67157 15 10.5V13.5C15 14.3284 14.3284 15 13.5 15H10.5C9.67157 15 9 14.3284 9 13.5Z" fill="#545454"/>
<rect x="4" y="4" width="8" height="8" rx="2" fill="#030303"/>
</svg>
